<?xml version="1.0" encoding="utf-8"?>
<!-- Generator: Adobe Illustrator 16.0.0, SVG Export Plug-In . SVG Version: 6.00 Build 0)  -->
<!DOCTYPE svg PUBLIC "-//W3C//DTD SVG 1.1//EN" "http://www.w3.org/Graphics/SVG/1.1/DTD/svg11.dtd">
<svg version="1.1" id="Layer_1" xmlns="http://www.w3.org/2000/svg" xmlns:xlink="http://www.w3.org/1999/xlink" x="0px" y="0px"
     width="373.5px" height="739.078px" viewBox="0 0 373.5 739.078" enable-background="new 0 0 373.5 739.078" xml:space="preserve">
<path fill="#D1D3D4" d="M2.416,131.714L2.416,131.714c-1.334,0-2.416-1.082-2.416-2.417v-24.416c0-1.335,1.082-2.417,2.416-2.417
	c1.335,0,2.417,1.082,2.417,2.417v24.416C4.833,130.632,3.751,131.714,2.416,131.714"/>
  <path fill="#D1D3D4" d="M2.416,209.464L2.416,209.464c-1.334,0-2.416-1.082-2.416-2.417v-49.25c0-1.334,1.082-2.416,2.416-2.416
	c1.335,0,2.417,1.082,2.417,2.416v49.25C4.833,208.382,3.751,209.464,2.416,209.464"/>
  <path fill="#D1D3D4" d="M2.416,277.464L2.416,277.464c-1.334,0-2.416-1.082-2.416-2.417v-49.25c0-1.334,1.082-2.416,2.416-2.416
	c1.335,0,2.417,1.082,2.417,2.416v49.25C4.833,276.382,3.751,277.464,2.416,277.464"/>
  <path fill="#D1D3D4" d="M370.984,260.922h-0.055c-1.319,0-2.39-1.069-2.39-2.389v-82.221c0-1.32,1.07-2.39,2.39-2.39h0.055
	c1.319,0,2.389,1.07,2.389,2.39v82.221C373.373,259.854,372.304,260.922,370.984,260.922"/>
  <path fill="#D1D3D4" d="M309.427,739H63.946c-33.756,0-61.219-27.464-61.219-61.22V61.219C2.728,27.462,30.19,0,63.946,0h245.48
	c33.756,0,61.219,27.462,61.219,61.219v616.562C370.646,711.537,343.183,739,309.427,739 M63.946,2
	C31.293,2,4.728,28.565,4.728,61.219v616.562c0,32.654,26.566,59.22,59.219,59.22h245.48c32.653,0,59.219-26.565,59.219-59.22
	V61.219C368.646,28.565,342.08,2,309.427,2H63.946z"/>
  <path fill="#D1D3D4" d="M232.804,30.805c0,3.175-2.573,5.749-5.749,5.749c-3.175,0-5.748-2.574-5.748-5.749
	c0-3.175,2.573-5.749,5.748-5.749C230.23,25.056,232.804,27.63,232.804,30.805"/>
  <path fill="#D1D3D4" d="M207.376,34.199H169.83c-1.874,0-3.393-1.52-3.393-3.394c0-1.875,1.519-3.394,3.393-3.394h37.546
	c1.874,0,3.395,1.519,3.395,3.394C210.771,32.679,209.25,34.199,207.376,34.199"/>
  <rect x="24.334" y="22.898" fill="#FFFFFF" stroke="#BCBEC0" stroke-miterlimit="10" width="325.333" height="66"/>
  <rect x="26.334" y="641.899" fill="#FFFFFF" stroke="#BCBEC0" stroke-miterlimit="10" width="320.667" height="75.333"/>
  <path fill="#FFFFFF" d="M309.427,1H63.947C30.688,1,3.728,27.961,3.728,61.219v616.562c0,33.259,26.96,60.22,60.219,60.22h245.48
	c33.259,0,60.219-26.961,60.219-60.22V61.219C369.646,27.961,342.686,1,309.427,1z M346.104,672.881
	c0,22.307-18.083,40.389-40.39,40.389H188.538h-3.075H68.286c-22.305,0-40.388-18.082-40.388-40.389V64.283
	c0-20.832,16.887-37.72,37.719-37.72h25.134c4.393,0,7.982,1.053,7.96,5.937c-0.002,0.287,0.173,3.445,0.173,3.445
	c0.627,8.928,7.255,15.493,16.625,16.064c0.181,0.011,35.892,0.084,71.491,0.155c35.601-0.071,71.311-0.144,71.492-0.155
	c9.369-0.571,15.998-7.136,16.625-16.064c0,0,0.174-3.158,0.173-3.445c-0.022-4.884,3.566-5.937,7.96-5.937h25.133
	c20.832,0,37.721,16.888,37.721,37.72V672.881z"/>
  <path fill="#D1D3D4" d="M250.036,705.627H120.913c-1.978,0-3.581-1.604-3.581-3.581c0-1.979,1.603-3.582,3.581-3.582h129.123
	c1.979,0,3.582,1.603,3.582,3.582C253.618,704.023,252.015,705.627,250.036,705.627"/>
  <path fill="#BCBEC0" d="M276.865,51.599h-0.629c-0.541,0-0.979-0.438-0.979-0.978v-1.677c0-0.541,0.438-0.979,0.979-0.979h0.629
	c0.54,0,0.979,0.438,0.979,0.979v1.677C277.844,51.161,277.405,51.599,276.865,51.599"/>
  <path fill="#BCBEC0" d="M284.865,51.599h-0.788c-0.497,0-0.898-0.402-0.898-0.899v-4.864c0-0.497,0.401-0.9,0.898-0.9h0.788
	c0.496,0,0.898,0.403,0.898,0.9V50.7C285.764,51.197,285.361,51.599,284.865,51.599"/>
  <path fill="#BCBEC0" d="M288.675,51.599h-0.486c-0.58,0-1.05-0.47-1.05-1.05v-6.985c0-0.58,0.47-1.05,1.05-1.05h0.486
	c0.579,0,1.049,0.47,1.049,1.05v6.985C289.724,51.129,289.254,51.599,288.675,51.599"/>
  <path fill="#BCBEC0" d="M280.896,51.599h-0.77c-0.502,0-0.908-0.407-0.908-0.908v-3.262c0-0.501,0.406-0.908,0.908-0.908h0.77
	c0.501,0,0.908,0.407,0.908,0.908v3.262C281.804,51.192,281.396,51.599,280.896,51.599"/>
  <g>
	<path fill="#BCBEC0" d="M329.051,51.546h-14.03c-0.847,0-1.535-0.688-1.535-1.534v-5.911c0-0.846,0.688-1.534,1.535-1.534h14.03
		c0.846,0,1.534,0.688,1.534,1.534v5.911C330.585,50.858,329.896,51.546,329.051,51.546 M315.021,43.126
		c-0.538,0-0.976,0.437-0.976,0.975v5.911c0,0.538,0.438,0.975,0.976,0.975h14.03c0.537,0,0.975-0.437,0.975-0.975v-5.911
		c0-0.538-0.438-0.975-0.975-0.975H315.021z"/>
    <rect x="313.485" y="42.567" fill="none" width="17.1" height="8.98"/>
</g>
  <rect x="314.884" y="44.098" fill="#BCBEC0" width="14.257" height="5.871"/>
  <g>
	<path fill="#BCBEC0" d="M331.784,48.268h-0.268v-2.446h0.268c0.676,0,1.224,0.548,1.224,1.223
		C333.008,47.721,332.46,48.268,331.784,48.268"/>
    <rect x="331.517" y="45.822" fill="none" width="1.491" height="2.446"/>
</g>
  <path fill="#BCBEC0" d="M301.68,44.096c2.027,0,3.949,0.862,5.302,2.34l1.188-1.187c-1.618-1.739-3.926-2.83-6.489-2.83
	s-4.87,1.091-6.488,2.83l1.187,1.187C297.731,44.958,299.653,44.096,301.68,44.096"/>
  <path fill="#BCBEC0" d="M301.68,47.173c1.205,0,2.344,0.536,3.121,1.444l1.19-1.192c-1.059-1.184-2.598-1.93-4.312-1.93
	s-3.247,0.752-4.307,1.936l1.184,1.183C299.333,47.705,300.463,47.173,301.68,47.173"/>
  <path fill="#BCBEC0" d="M303.61,49.807c-0.444-0.581-1.142-0.958-1.931-0.958c-0.788,0-1.481,0.38-1.927,0.962l1.927,1.927
	L303.61,49.807z"/>
  <path fill="#BCBEC0" d="M55.639,51.115c-0.535-0.41-0.862-0.958-0.985-1.642h1.48c0.097,0.315,0.274,0.563,0.532,0.743
	c0.259,0.185,0.569,0.277,0.927,0.277c0.607,0,1.081-0.269,1.423-0.807c0.343-0.534,0.514-1.277,0.514-2.23h-0.099
	c-0.411,0.83-1.13,1.245-2.155,1.245c-0.791,0-1.446-0.262-1.966-0.784c-0.514-0.522-0.771-1.184-0.771-1.983
	c0-0.852,0.287-1.554,0.864-2.103c0.579-0.546,1.321-0.819,2.224-0.819c1.253,0,2.166,0.548,2.739,1.643
	c0.391,0.695,0.588,1.571,0.588,2.628c0,1.399-0.299,2.491-0.895,3.28c-0.596,0.783-1.421,1.175-2.478,1.175
	C56.82,51.738,56.171,51.53,55.639,51.115 M58.813,47.064c0.312-0.304,0.468-0.688,0.468-1.153c0-0.469-0.158-0.862-0.473-1.181
	c-0.315-0.319-0.706-0.479-1.171-0.479c-0.465,0-0.854,0.158-1.169,0.473c-0.315,0.311-0.472,0.699-0.472,1.164
	c0,0.477,0.153,0.866,0.46,1.17c0.307,0.308,0.7,0.461,1.175,0.461C58.109,47.519,58.502,47.368,58.813,47.064"/>
  <path fill="#BCBEC0" d="M62.905,44.723c0.177-0.176,0.412-0.265,0.703-0.265c0.292,0,0.526,0.089,0.704,0.265
	c0.172,0.178,0.259,0.408,0.259,0.692c0,0.281-0.087,0.509-0.259,0.686c-0.178,0.177-0.412,0.266-0.704,0.266
	c-0.291,0-0.526-0.089-0.703-0.266c-0.177-0.177-0.265-0.405-0.265-0.686C62.64,45.131,62.728,44.901,62.905,44.723 M62.905,49.075
	c0.177-0.177,0.412-0.266,0.703-0.266c0.292,0,0.526,0.089,0.704,0.266c0.172,0.177,0.259,0.405,0.259,0.686
	c0,0.284-0.087,0.515-0.259,0.691c-0.178,0.177-0.412,0.266-0.704,0.266c-0.291,0-0.526-0.089-0.703-0.266
	c-0.177-0.176-0.265-0.407-0.265-0.691C62.64,49.48,62.728,49.252,62.905,49.075"/>
  <path fill="#BCBEC0" d="M70.318,49.986h-4.064V48.66c0.677-1.245,1.807-3.059,3.389-5.44h2.098v5.509h1.124v1.257h-1.124v1.55
	h-1.423V49.986z M67.632,48.764h2.709V44.43H70.26c-0.899,1.329-1.775,2.745-2.628,4.247V48.764z"/>
  <polygon fill="#BCBEC0" points="76.271,44.718 76.173,44.718 74.104,46.17 74.104,44.741 76.277,43.219 77.757,43.219
	77.757,51.537 76.271,51.537 "/>
  <path fill="#E6E7E8" d="M305.714,714.27H68.286c-22.822,0-41.389-18.567-41.389-41.389V64.283c0-21.35,17.369-38.72,38.721-38.72
	h25.133c2.199,0,5.344,0.222,7.254,2.14c1.14,1.147,1.715,2.762,1.705,4.801c0.002,0.192,0.09,1.889,0.172,3.386
	c0.597,8.504,6.902,14.586,15.687,15.121c0.478,0.008,26.527,0.064,71.433,0.153c44.903-0.089,70.952-0.145,71.464-0.155
	c8.751-0.533,15.056-6.615,15.653-15.134c0.082-1.482,0.17-3.179,0.171-3.373c-0.01-2.037,0.564-3.652,1.706-4.799
	c1.91-1.918,5.055-2.14,7.254-2.14h25.133c21.351,0,38.721,17.37,38.721,38.72v608.598
	C347.104,695.703,328.536,714.27,305.714,714.27 M65.618,27.563c-20.248,0-36.721,16.473-36.721,36.72v608.598
	c0,21.719,17.67,39.389,39.389,39.389h237.428c21.719,0,39.39-17.67,39.39-39.389V64.283c0-20.247-16.473-36.72-36.721-36.72H283.25
	c-2.929,0-4.783,0.493-5.836,1.551c-0.764,0.767-1.131,1.873-1.124,3.382c0.001,0.294-0.133,2.756-0.175,3.504
	c-0.672,9.58-7.729,16.409-17.563,17.007c-0.074,0.004-0.268,0.016-71.551,0.157c-71.287-0.141-71.481-0.153-71.553-0.157
	c-9.833-0.598-16.892-7.427-17.563-16.991c-0.042-0.764-0.176-3.226-0.176-3.519c0.008-1.51-0.361-2.616-1.123-3.383
	c-1.054-1.058-2.908-1.551-5.836-1.551H65.618z"/>
  <g>
	<path fill="#BCBEC0" d="M163.094,78.89V66.207h2.654V78.89H163.094z"/>
    <path fill="#BCBEC0" d="M168.57,69.195h2.479v1.556h0.158c0.448-1.09,1.433-1.767,2.865-1.767c2.153,0,3.313,1.318,3.313,3.639
		v6.267h-2.558v-5.66c0-1.336-0.571-2.039-1.784-2.039c-1.187,0-1.916,0.835-1.916,2.109v5.59h-2.558V69.195z"/>
    <path fill="#BCBEC0" d="M182.588,77.369h-0.158v1.521h-2.479V65.495h2.558v5.247h0.158c0.492-1.063,1.582-1.705,2.909-1.705
		c2.452,0,3.929,1.872,3.929,5.001c0,3.111-1.494,5.001-3.929,5.001C184.206,79.039,183.107,78.424,182.588,77.369z M182.483,74.047
		c0.009,1.758,0.853,2.856,2.206,2.856c1.362,0,2.188-1.09,2.188-2.865c0-1.767-0.835-2.856-2.188-2.856
		C183.344,71.182,182.492,72.28,182.483,74.047z"/>
    <path fill="#BCBEC0" d="M191.114,74.038c0-3.138,1.819-5.054,4.772-5.054s4.772,1.907,4.772,5.054c0,3.173-1.793,5.063-4.772,5.063
		S191.114,77.211,191.114,74.038z M198.031,74.038c0-1.863-0.791-2.962-2.145-2.962c-1.362,0-2.145,1.099-2.145,2.962
		c0,1.89,0.773,2.971,2.145,2.971C197.249,77.009,198.031,75.919,198.031,74.038z"/>
    <path fill="#BCBEC0" d="M206.556,75.726l-1.802,3.164h-2.716l3.041-4.79l-3.059-4.904h2.936l1.714,3.182h0.158l1.714-3.182h2.795
		l-3.041,4.79l3.067,4.904h-2.848l-1.802-3.164H206.556z"/>
</g>
  <path fill="#BCBEC0" d="M69.269,679.292h0.875c0.242,0,0.438-0.198,0.438-0.439v-14.874c0-0.24-0.196-0.438-0.438-0.438h-0.875
	c-0.241,0-0.438,0.197-0.438,0.438v14.874C68.832,679.093,69.028,679.292,69.269,679.292z M60.519,679.292h0.875
	c0.241,0,0.437-0.198,0.437-0.439v-14.874c0-0.24-0.196-0.438-0.437-0.438h-0.875c-0.241,0-0.438,0.197-0.438,0.438v14.874
	C60.082,679.093,60.278,679.292,60.519,679.292z M77.144,659.167h-5.686l-1.838-2.451c-0.496-0.661-1.273-1.05-2.1-1.05h-4.375
	c-0.826,0-1.604,0.389-2.099,1.05l-1.838,2.451H53.52c-0.242,0-0.438,0.194-0.438,0.437v0.875c0,0.241,0.196,0.438,0.438,0.438
	h1.313v20.125c0,1.449,1.174,2.625,2.625,2.625l0,0h15.749c1.449,0,2.625-1.176,2.625-2.625l0,0v-20.125h1.312
	c0.243,0,0.438-0.196,0.438-0.438v-0.875C77.582,659.361,77.386,659.167,77.144,659.167z M62.444,657.765
	c0.166-0.219,0.425-0.349,0.7-0.349h4.375c0.276,0,0.535,0.13,0.701,0.349l1.049,1.401h-7.875L62.444,657.765z M74.083,681.041
	c0,0.483-0.393,0.875-0.876,0.875H57.458c-0.483,0-0.876-0.392-0.876-0.875v-20.125h17.501V681.041z M64.895,679.292h0.875
	c0.242,0,0.437-0.198,0.437-0.439v-14.874c0-0.24-0.195-0.438-0.437-0.438h-0.875c-0.242,0-0.438,0.197-0.438,0.438v14.874
	C64.457,679.093,64.652,679.292,64.895,679.292z"/>
  <path fill="#BCBEC0" d="M140.955,660.648l2.988,2.986c0.328,0.328,0.773,0.514,1.237,0.514h10.5c0.484,0,0.875,0.393,0.875,0.873
	v12.252c0,0.484-0.391,0.873-0.875,0.873h-22.75c-0.483,0-0.875-0.389-0.875-0.873v-15.75c0-0.484,0.392-0.875,0.875-0.875H140.955
	 M132.93,658.898c-1.45,0-2.625,1.176-2.625,2.625v15.75c0,1.447,1.175,2.625,2.625,2.625h22.75c1.451,0,2.625-1.178,2.625-2.625
	v-12.252c0-1.447-1.174-2.625-2.625-2.625h-10.5l-2.987-2.986c-0.328-0.328-0.774-0.512-1.238-0.512H132.93z"/>
  <path fill="#BCBEC0" d="M53.792,81.581l0.796-0.797c0.189-0.188,0.189-0.494,0-0.682l-7.268-7.286l7.268-7.286
	c0.189-0.188,0.189-0.494,0-0.683l-0.796-0.796c-0.188-0.188-0.494-0.188-0.683,0l-8.423,8.423c-0.188,0.188-0.188,0.494,0,0.683
	l8.423,8.423C53.298,81.769,53.604,81.769,53.792,81.581z"/>
  <path fill="#BCBEC0" d="M308.56,671.753l0.973-0.973c0.185-0.185,0.495-0.053,0.495,0.205v7.986c0,1.288-1.045,2.334-2.333,2.334
	h-17.111c-1.288,0-2.333-1.046-2.333-2.334v-17.111c0-1.288,1.045-2.333,2.333-2.333h14.209c0.258,0,0.39,0.315,0.204,0.496
	l-0.972,0.972c-0.054,0.054-0.131,0.088-0.204,0.088h-13.237c-0.427,0-0.777,0.35-0.777,0.777v17.111
	c0,0.428,0.351,0.778,0.777,0.778h17.111c0.428,0,0.778-0.351,0.778-0.778v-7.015C308.473,671.879,308.502,671.807,308.56,671.753z
	 M315.652,662.458l-15.191,15.191l-4.856,0.54c-0.651,0.072-1.2-0.477-1.128-1.128l0.54-4.856l15.191-15.19
	c0.797-0.798,2.09-0.798,2.888,0l2.557,2.557C316.449,660.369,316.449,661.662,315.652,662.458L315.652,662.458z M311.103,664.812
	l-3.242-3.242l-11.356,11.351l-0.403,3.65l3.65-0.403L311.103,664.812L311.103,664.812z M314.554,660.67l-2.558-2.558
	c-0.184-0.185-0.495-0.194-0.686,0l-2.353,2.354l3.243,3.242l2.353-2.353C314.743,661.17,314.743,660.86,314.554,660.67
	L314.554,660.67z"/>
  <path fill="#BCBEC0" d="M234.815,666.644l-7.333-7.666c-1.029-1.076-2.872-0.359-2.872,1.152v3.673
	c-6.894,0.083-13.333,1.331-13.333,8.46c0,3.957,2.326,6.259,3.714,7.273c1.01,0.738,2.417-0.209,2.07-1.438
	c-1.578-5.599,1.115-6.22,7.549-6.296v3.66c0,1.51,1.842,2.229,2.872,1.152l7.333-7.666
	C235.432,668.304,235.432,667.289,234.815,666.644L234.815,666.644z M233.852,668.027l-7.333,7.666
	c-0.206,0.215-0.574,0.072-0.574-0.23v-5c-7.142,0-12.305,0.404-10.166,7.988c-1.501-1.098-3.168-3.088-3.168-6.188
	c0-6.668,6.787-7.134,13.334-7.134v-5c0-0.302,0.368-0.445,0.574-0.229l7.333,7.666
	C233.976,667.695,233.976,667.898,233.852,668.027L233.852,668.027z"/>
</svg>
